<svg id="visual" viewBox="0 0 900 600" width="900" height="600" xmlns="http://www.w3.org/2000/svg" xmlns:xlink="http://www.w3.org/1999/xlink" version="1.1"><rect x="0" y="0" width="900" height="600" fill="#002233"></rect><path d="M0 500L21.5 480.3C43 460.7 86 421.3 128.8 408.8C171.7 396.3 214.3 410.7 257.2 414.3C300 418 343 411 385.8 405C428.7 399 471.3 394 514.2 404.7C557 415.3 600 441.7 642.8 460.8C685.7 480 728.3 492 771.2 499.3C814 506.7 857 509.3 878.5 510.7L900 512L900 601L878.5 601C857 601 814 601 771.2 601C728.3 601 685.7 601 642.8 601C600 601 557 601 514.2 601C471.3 601 428.7 601 385.8 601C343 601 300 601 257.2 601C214.3 601 171.7 601 128.8 601C86 601 43 601 21.5 601L0 601Z" fill="#0066FF" stroke-linecap="round" stroke-linejoin="miter"></path></svg>